<?xml version="1.0" encoding="UTF-8"?><svg id="Layer_1" xmlns="http://www.w3.org/2000/svg" viewBox="0 0 862.87 119.06"><defs><style>.cls-1{fill:#231f20;stroke-width:0px;}</style></defs><path class="cls-1" d="M37.51,78.09v-37.56c0-4.82-.61-7.93-1.83-9.34-1.16-1.41-3.56-2.12-7.23-2.12v-2.12h30.34c8.54,0,15.01,1.49,19.41,4.48,4.4,2.99,6.6,7.21,6.6,12.67,0,3.21-1.15,6.08-3.47,8.62-2.31,2.54-5.23,4.29-8.76,5.25v.19c4.17.58,7.67,2.28,10.5,5.1,2.89,2.83,4.33,6.07,4.33,9.73,0,5.39-2.17,9.7-6.5,12.91-4.33,3.21-10.64,4.82-18.93,4.82H28.45v-2.12c3.72,0,6.16-.68,7.32-2.03s1.73-4.17,1.73-8.48ZM48.49,31.56v23.79c1.86.45,5.14.67,9.82.67s8.35-1.12,10.98-3.37c2.63-2.25,3.95-5.23,3.95-8.96,0-4.11-1.53-7.32-4.58-9.63-3.05-2.31-7.24-3.47-12.57-3.47-3.08,0-5.62.32-7.61.96ZM48.49,60.36v25.04c2.44.84,5.81,1.25,10.11,1.25,4.88,0,8.81-1.14,11.8-3.42,2.98-2.28,4.48-5.35,4.48-9.2,0-4.49-1.72-7.98-5.15-10.45-3.44-2.47-8.07-3.71-13.92-3.71-2.95,0-5.39.16-7.32.48Z"/><path class="cls-1" d="M113.51,46.3c6.1,0,11.24,2.18,15.41,6.55,4.17,4.37,6.26,9.5,6.26,15.41,0,6.49-1.93,12.11-5.78,16.86-3.79,4.62-9.05,6.93-15.8,6.93-6.16,0-11.3-2.24-15.41-6.74-4.11-4.49-6.17-9.79-6.17-15.89s2.09-11.4,6.26-16.09c4.11-4.69,9.18-7.03,15.22-7.03ZM112.74,50.15c-3.15,0-5.65,1.32-7.51,3.95-1.86,2.63-2.79,6.39-2.79,11.27,0,6.93,1.16,12.46,3.47,16.57,2.31,4.11,5.39,6.16,9.25,6.16,6.42,0,9.63-5.3,9.63-15.89,0-6.74-1.14-12.1-3.42-16.09-2.28-3.98-5.15-5.97-8.62-5.97Z"/><path class="cls-1" d="M166.58,46.3h2.12v14.73h-2.12c-.58-3.21-1.91-5.89-4-8.04-2.09-2.15-4.71-3.23-7.85-3.23-2.06,0-3.71.51-4.96,1.54s-1.88,2.34-1.88,3.95c0,3.08,2.79,5.84,8.38,8.28,2.12.9,3.58,1.54,4.38,1.93s2.1,1.11,3.9,2.17c1.8,1.06,3.1,2.03,3.9,2.89.8.87,1.56,2.06,2.26,3.56.71,1.51,1.06,3.13,1.06,4.86,0,3.92-1.4,7.08-4.19,9.49s-6.5,3.61-11.12,3.61c-2.38,0-4.72-.32-7.03-.96-2.31-.64-3.66-.96-4.05-.96-.96,0-1.54.42-1.73,1.25h-2.12v-15.41h2.12c.58,3.66,2.1,6.68,4.58,9.06,2.47,2.38,5.35,3.56,8.62,3.56,2.12,0,3.79-.55,5.01-1.64s1.83-2.5,1.83-4.24c0-1.93-.77-3.6-2.31-5.01s-3.41-2.62-5.59-3.61-4.35-2.05-6.5-3.18-4-2.71-5.54-4.77c-1.54-2.05-2.31-4.49-2.31-7.32,0-3.59,1.25-6.58,3.76-8.96,2.5-2.37,5.78-3.56,9.82-3.56,1.67,0,3.47.32,5.39.96,1.99.58,3.37.87,4.14.87,1.16,0,1.83-.61,2.02-1.83Z"/><path class="cls-1" d="M203.38,46.3h2.12v14.73h-2.12c-.58-3.21-1.91-5.89-4-8.04-2.09-2.15-4.71-3.23-7.85-3.23-2.06,0-3.71.51-4.96,1.54s-1.88,2.34-1.88,3.95c0,3.08,2.79,5.84,8.38,8.28,2.12.9,3.58,1.54,4.38,1.93s2.1,1.11,3.9,2.17c1.8,1.06,3.1,2.03,3.9,2.89.8.87,1.56,2.06,2.26,3.56.71,1.51,1.06,3.13,1.06,4.86,0,3.92-1.4,7.08-4.19,9.49s-6.5,3.61-11.12,3.61c-2.38,0-4.72-.32-7.03-.96-2.31-.64-3.66-.96-4.05-.96-.96,0-1.54.42-1.73,1.25h-2.12v-15.41h2.12c.58,3.66,2.1,6.68,4.58,9.06,2.47,2.38,5.35,3.56,8.62,3.56,2.12,0,3.79-.55,5.01-1.64s1.83-2.5,1.83-4.24c0-1.93-.77-3.6-2.31-5.01s-3.41-2.62-5.59-3.61-4.35-2.05-6.5-3.18-4-2.71-5.54-4.77c-1.54-2.05-2.31-4.49-2.31-7.32,0-3.59,1.25-6.58,3.76-8.96,2.5-2.37,5.78-3.56,9.82-3.56,1.67,0,3.47.32,5.39.96,1.99.58,3.37.87,4.14.87,1.16,0,1.83-.61,2.02-1.83Z"/><path class="cls-1" d="M250.96,63.93h-29.47c0,5.91,1.33,10.57,4,13.97,2.66,3.41,6.24,5.1,10.74,5.1,5.97,0,10.31-3.05,13-9.15l1.64,1.25c-.9,4.81-2.89,8.83-5.97,12.04-3.21,3.28-7.03,4.91-11.46,4.91-5.59,0-10.27-2.09-14.06-6.26-3.66-4.24-5.49-9.54-5.49-15.89,0-6.93,1.8-12.58,5.39-16.95,3.66-4.43,8.48-6.64,14.45-6.64,5.27,0,9.46,1.6,12.57,4.81,3.11,3.21,4.67,7.48,4.67,12.81ZM221.58,60.65h18.98c-.19-3.53-1.09-6.2-2.7-7.99-1.61-1.8-3.73-2.7-6.36-2.7s-4.82,1.01-6.74,3.03c-1.93,2.02-2.99,4.58-3.18,7.66Z"/><path class="cls-1" d="M267.53,46.3h2.79v7.9c2.31-2.89,4.54-4.93,6.69-6.12,2.15-1.19,4.57-1.78,7.27-1.78,7.71,0,11.56,5.17,11.56,15.51v20.32c0,2.5.45,4.22,1.35,5.15.9.93,2.63,1.37,5.2,1.3v2.12h-22.25v-2.12c2.57.06,4.27-.34,5.1-1.2.84-.87,1.25-2.62,1.25-5.25v-18.59c0-3.72-.55-6.37-1.64-7.95-1.09-1.57-2.76-2.36-5.01-2.36-3.02,0-6.2,1.73-9.54,5.2v23.7c0,2.5.43,4.21,1.3,5.1.87.9,2.58,1.35,5.15,1.35v2.12h-22.25v-2.12c2.57,0,4.29-.43,5.15-1.3.87-.87,1.3-2.58,1.3-5.15v-22.44c0-2.5-.24-4.22-.72-5.15-.48-.93-1.33-1.4-2.55-1.4-1.03,0-2.09.23-3.18.67l-.67-2.02,13.68-5.49Z"/><path class="cls-1" d="M397.66,77.8l2.02,1.54c-.84,3.92-2.55,7.03-5.15,9.34-2.6,2.31-5.83,3.47-9.68,3.47-5.65,0-11.08-2.85-16.28-8.57-6.68,5.72-13.36,8.57-20.03,8.57-5.65,0-10.07-1.27-13.25-3.8-3.18-2.54-4.77-5.99-4.77-10.36,0-8.92,6.58-16.6,19.75-23.02-2.5-5.59-3.76-10.27-3.76-14.06,0-4.49,1.6-8.19,4.82-11.08,3.27-2.89,7.19-4.33,11.75-4.33,4.05,0,7.26,1.06,9.63,3.18,2.37,2.12,3.56,4.91,3.56,8.38,0,6.55-5.11,12.33-15.32,17.34,3.53,6.93,7.54,13.07,12.04,18.4,5.2-6.68,7.8-12.07,7.8-16.18,0-3.28-1.38-4.94-4.14-5.01v-2.12h20.03v2.12c-2.25.13-4.01.67-5.3,1.64-1.29,1.09-2.92,3.15-4.91,6.16-5.14,8.22-8.73,13.77-10.79,16.66,2.63,3.08,4.98,5.28,7.03,6.6,2.05,1.32,4.27,1.97,6.64,1.97,1.8,0,3.5-.66,5.11-1.97s2.66-2.94,3.18-4.86ZM365.58,80.3c-3.79-4.49-8.32-11.72-13.58-21.67-7.07,3.85-10.6,8.9-10.6,15.12,0,3.53,1.07,6.47,3.23,8.82,2.15,2.34,4.86,3.51,8.14,3.51,3.92,0,8.19-1.93,12.81-5.78ZM359.22,50.83c7.13-3.53,10.69-8.25,10.69-14.16,0-2.31-.59-4.12-1.78-5.44-1.19-1.31-2.78-1.97-4.77-1.97-2.31,0-4.22.8-5.73,2.41s-2.26,3.56-2.26,5.88c0,3.92,1.28,8.35,3.85,13.29Z"/><path class="cls-1" d="M459.59,49.77v-10.89c0-3.21-.29-5.38-.87-6.5-.58-1.12-1.58-1.68-2.99-1.68-.96,0-1.86.19-2.7.58l-.87-2.02,13.97-5.39h2.8v53.94c0,2.95.22,4.94.67,5.97.45,1.03,1.28,1.54,2.5,1.54.64,0,1.73-.26,3.27-.77l.87,1.83-13.87,5.68h-2.8v-5.39c-3.98,3.6-8.09,5.39-12.33,5.39-5.46,0-9.82-1.99-13.1-5.97-3.27-3.98-4.91-9.08-4.91-15.31,0-6.68,1.96-12.39,5.88-17.15,3.92-4.88,8.99-7.32,15.22-7.32,4.05,0,7.13,1.15,9.25,3.47ZM459.69,82.52v-19.65c0-4.24-.81-7.48-2.41-9.73-1.61-2.25-3.89-3.37-6.84-3.37-3.15,0-5.72,1.57-7.71,4.72-1.99,3.15-2.99,7.45-2.99,12.91s1.14,10.31,3.42,13.77c2.28,3.47,5.18,5.2,8.72,5.2,2.57,0,5.17-1.28,7.8-3.85Z"/><path class="cls-1" d="M515.56,63.93h-29.47c0,5.91,1.33,10.57,4,13.97,2.66,3.41,6.24,5.1,10.74,5.1,5.97,0,10.31-3.05,13-9.15l1.64,1.25c-.9,4.81-2.89,8.83-5.97,12.04-3.21,3.28-7.03,4.91-11.46,4.91-5.59,0-10.28-2.09-14.06-6.26-3.66-4.24-5.49-9.54-5.49-15.89,0-6.93,1.8-12.58,5.39-16.95,3.66-4.43,8.48-6.64,14.45-6.64,5.26,0,9.45,1.6,12.57,4.81,3.11,3.21,4.67,7.48,4.67,12.81ZM486.18,60.65h18.98c-.2-3.53-1.09-6.2-2.7-7.99-1.6-1.8-3.72-2.7-6.36-2.7s-4.82,1.01-6.74,3.03c-1.93,2.02-2.99,4.58-3.18,7.66Z"/><path class="cls-1" d="M552.74,78.09v-37.56c0-4.82-.61-7.93-1.83-9.34-1.16-1.41-3.56-2.12-7.23-2.12v-2.12h30.34c8.54,0,15.01,1.49,19.41,4.48,4.4,2.99,6.6,7.21,6.6,12.67,0,3.21-1.16,6.08-3.47,8.62-2.31,2.54-5.24,4.29-8.76,5.25v.19c4.17.58,7.67,2.28,10.5,5.1,2.89,2.83,4.33,6.07,4.33,9.73,0,5.39-2.17,9.7-6.5,12.91-4.33,3.21-10.64,4.82-18.92,4.82h-33.52v-2.12c3.72,0,6.16-.68,7.32-2.03s1.73-4.17,1.73-8.48ZM563.72,31.56v23.79c1.86.45,5.14.67,9.82.67s8.35-1.12,10.98-3.37c2.64-2.25,3.95-5.23,3.95-8.96,0-4.11-1.53-7.32-4.58-9.63-3.05-2.31-7.24-3.47-12.57-3.47-3.08,0-5.62.32-7.61.96ZM563.72,60.36v25.04c2.44.84,5.81,1.25,10.11,1.25,4.88,0,8.81-1.14,11.8-3.42s4.48-5.35,4.48-9.2c0-4.49-1.72-7.98-5.16-10.45-3.44-2.47-8.07-3.71-13.92-3.71-2.95,0-5.39.16-7.32.48Z"/><path class="cls-1" d="M641.84,59.5v19.36c0,2.76.15,4.54.43,5.34.29.81.82,1.2,1.59,1.2,1.09,0,2.6-1.15,4.53-3.47v3.47c-3.27,4.43-6.71,6.65-10.31,6.65s-5.46-2.21-5.59-6.65c-4.88,4.43-9.18,6.65-12.91,6.65-3.34,0-5.99-.95-7.95-2.84-1.96-1.89-2.93-4.55-2.93-7.95s1.76-6.74,5.3-9.63c3.6-2.89,9.76-5.88,18.49-8.96,0-4.75-.51-8.09-1.54-10.02-1.03-1.93-2.89-2.89-5.59-2.89-4.05,0-6.07,1.7-6.07,5.1,0,4.82-1.58,7.22-4.72,7.22-1.35,0-2.41-.43-3.18-1.3s-1.16-1.98-1.16-3.32c0-3.02,1.48-5.62,4.43-7.8,3.02-2.25,7.03-3.37,12.04-3.37,10.08,0,15.12,4.4,15.12,13.19ZM632.49,81.85v-15.89c-5.46,2.31-9.21,4.4-11.27,6.26-2.06,1.86-3.08,4.21-3.08,7.03,0,1.8.56,3.31,1.69,4.53,1.12,1.22,2.52,1.83,4.19,1.83,2.31,0,5.14-1.25,8.48-3.76Z"/><path class="cls-1" d="M663.89,23.86h2.7v58.28c0,2.57.45,4.29,1.35,5.15.9.87,2.66,1.3,5.3,1.3v2.12h-22.63v-2.12c2.56,0,4.31-.45,5.25-1.35.93-.9,1.4-2.6,1.4-5.1v-43.73c0-3.08-.27-5.14-.82-6.16s-1.56-1.54-3.03-1.54c-1.03,0-2.02.19-2.99.58l-.67-1.93,14.16-5.49ZM679.4,83.87l-12.71-17.15,11.94-10.6c2.05-1.86,3.08-3.27,3.08-4.24,0-1.41-1.16-2.12-3.47-2.12v-2.12h20.04v2.12c-2.7,0-4.91.38-6.65,1.16-1.73.77-3.85,2.31-6.36,4.62l-9.25,8.48,12.72,16.47c2.5,3.28,4.56,5.49,6.16,6.65,1.41.96,3.27,1.45,5.59,1.45v2.12h-22.73v-2.12c1.99,0,2.99-.61,2.99-1.83,0-.64-.45-1.61-1.35-2.89Z"/><path class="cls-1" d="M716.87,23.86h2.7v58.28c0,2.57.45,4.29,1.35,5.15.9.87,2.66,1.3,5.3,1.3v2.12h-22.63v-2.12c2.56,0,4.31-.45,5.25-1.35.93-.9,1.4-2.6,1.4-5.1v-43.73c0-3.08-.27-5.14-.82-6.16s-1.56-1.54-3.03-1.54c-1.03,0-2.02.19-2.99.58l-.67-1.93,14.16-5.49ZM732.38,83.87l-12.71-17.15,11.94-10.6c2.05-1.86,3.08-3.27,3.08-4.24,0-1.41-1.16-2.12-3.47-2.12v-2.12h20.04v2.12c-2.7,0-4.91.38-6.65,1.16-1.73.77-3.85,2.31-6.36,4.62l-9.25,8.48,12.72,16.47c2.5,3.28,4.56,5.49,6.16,6.65,1.41.96,3.27,1.45,5.59,1.45v2.12h-22.73v-2.12c1.99,0,2.99-.61,2.99-1.83,0-.64-.45-1.61-1.35-2.89Z"/><path class="cls-1" d="M788.82,63.93h-29.47c0,5.91,1.33,10.57,4,13.97,2.66,3.41,6.24,5.1,10.74,5.1,5.97,0,10.31-3.05,13-9.15l1.64,1.25c-.9,4.81-2.89,8.83-5.97,12.04-3.21,3.28-7.03,4.91-11.46,4.91-5.59,0-10.28-2.09-14.06-6.26-3.66-4.24-5.49-9.54-5.49-15.89,0-6.93,1.8-12.58,5.39-16.95,3.66-4.43,8.48-6.64,14.45-6.64,5.26,0,9.45,1.6,12.57,4.81,3.11,3.21,4.67,7.48,4.67,12.81ZM759.44,60.65h18.98c-.2-3.53-1.09-6.2-2.7-7.99-1.6-1.8-3.72-2.7-6.36-2.7s-4.82,1.01-6.74,3.03c-1.93,2.02-2.99,4.58-3.18,7.66Z"/><path class="cls-1" d="M805.59,46.3h2.99v8.67c.83-1.41,1.48-2.41,1.93-2.99,2.82-3.79,5.87-5.68,9.15-5.68,3.98,0,5.97,1.83,5.97,5.49,0,1.48-.47,2.71-1.4,3.71-.93,1-2.11,1.49-3.52,1.49-1.09,0-2.28-.54-3.56-1.64-1.22-1.16-2.09-1.73-2.6-1.73-1.61,0-3.63,2.57-6.07,7.71v19.84c0,2.89.55,4.85,1.64,5.88,1.09,1.03,3.21,1.54,6.36,1.54v2.12h-23.98v-2.12c2.44,0,4.16-.48,5.16-1.45.99-.96,1.49-2.63,1.49-5.01v-22.44c0-2.5-.26-4.22-.77-5.15-.51-.93-1.42-1.4-2.7-1.4-.77,0-1.9.19-3.37.58l-.67-1.93,13.97-5.49Z"/><path class="cls-1" d="M841.76,0h-72.92v9.26h72.92c6.54,0,11.85,5.32,11.85,11.85v76.84c0,6.54-5.32,11.85-11.85,11.85H21.11c-6.54,0-11.85-5.32-11.85-11.85V21.11c0-6.54,5.32-11.85,11.85-11.85h60.62V0H21.11C9.47,0,0,9.47,0,21.11v76.84c0,11.64,9.47,21.11,21.11,21.11h820.65c11.64,0,21.11-9.47,21.11-21.11V21.11C862.87,9.47,853.4,0,841.76,0Z"/></svg>